<svg width="161" height="110" viewBox="0 0 161 110" fill="none" xmlns="http://www.w3.org/2000/svg">
<path opacity="0.6" d="M115.672 104.319C122.472 104.165 126.176 92.1799 127.178 86.2063C132.986 85.0069 146.24 82.0386 152.798 79.7603C159.356 77.4821 152.713 60.5611 148.572 52.3854C150.647 49.8235 154.042 42.5071 151.022 33.7373C148.002 24.9676 135.237 28.1747 129.233 30.8745C128.317 27.9196 124.374 21.2091 115.929 18.0063C107.484 14.8035 92.654 21.4897 86.2949 25.2331C83.4402 20.4972 76.0378 10.0178 69.2656 5.98816C62.4935 1.95854 53.8712 13.9957 50.4066 20.5179C45.3312 16.1443 32.5861 9.2803 22.2087 16.8131C11.8313 24.3459 20.6131 35.5735 26.3012 40.2456C18.9536 39.9344 4.45005 41.8228 5.21662 51.8664C5.9832 61.9101 17.2831 65.8804 22.8372 66.6102C20.4641 69.7871 19.1713 77.6413 32.9859 83.6429C46.8005 89.6444 54.1131 81.6216 56.0425 76.8601C58.5991 82.2111 65.3884 94.049 72.0929 98.593C78.7975 103.137 90.2576 95.9645 95.1495 91.8103C99.1568 96.0435 108.871 104.472 115.672 104.319Z" fill="white" stroke="white" stroke-width="10" stroke-linecap="round"/>
</svg>
